IKResults
version=1
nRows=16
nColumns=40
inDegrees=yes

Units are S.I. units (second, meters, Newtons, ...)
Angles are in degrees.

endheader
time	pelvis_tilt	pelvis_list	pelvis_rotation	pelvis_tx	pelvis_ty	pelvis_tz	hip_flexion_r	hip_adduction_r	hip_rotation_r	knee_angle_r	knee_angle_r_beta	ankle_angle_r	subtalar_angle_r	mtp_angle_r	hip_flexion_l	hip_adduction_l	hip_rotation_l	knee_angle_l	knee_angle_l_beta	ankle_angle_l	subtalar_angle_l	mtp_angle_l	lumbar_extension	lumbar_bending	lumbar_rotation	arm_flex_r	arm_add_r	arm_rot_r	elbow_flex_r	pro_sup_r	wrist_flex_r	wrist_dev_r	arm_flex_l	arm_add_l	arm_rot_l	elbow_flex_l	pro_sup_l	wrist_flex_l	wrist_dev_l
      0.40000000	     15.24736734	      0.40538636	     -1.00399964	     -0.15856997	      0.92676849	      1.00974274	    -27.41974909	      1.32868730	     -5.52691104	    -17.17694530	     -0.29979425	     13.23493702	     -8.89830141	      0.28560941	     11.15782898	      1.09830990	     16.18589848	    -23.00503975	     -0.40151369	      8.69795885	      6.14729631	     -4.52235722	    -22.64910208	     -3.84421813	      1.56308157	     -5.91350152	    -17.05946934	     -1.21673279	     58.25048457	     89.95437384	      0.00000000	      0.00000000	     -6.39120821	      9.61890366	     24.85634969	     10.35360585	     89.95437384	      0.00000000	      0.00000000
      0.41000000	     15.56868181	      0.85665867	     -1.77258487	     -0.14207195	      0.92465413	      1.00983185	    -28.38596516	      0.31118453	     -5.53863825	    -18.12929791	     -0.31641594	     13.28784313	     -8.14428948	      0.01923515	     10.95904679	      0.97378090	     19.27862961	    -20.71037516	     -0.36146424	      7.86318491	      2.57195804	     -5.04704339	    -22.87278879	     -4.58042710	      2.28945560	     -5.68796112	    -17.26732768	     -1.52147240	     59.73362449	     89.95437384	      0.00000000	      0.00000000	     -7.21896827	      9.69482338	     25.64261346	      9.81800098	     89.95437384	      0.00000000	      0.00000000
      0.42000000	     15.41691346	      0.92941560	     -2.08523923	     -0.12605220	      0.92182764	      1.00952961	    -28.63720506	     -0.13295460	     -5.61412919	    -19.43146868	     -0.33914311	     13.32350001	     -7.24838446	     -0.36547215	     11.49378579	      0.94837548	     20.30953603	    -19.15337741	     -0.33428950	      7.81132035	      0.81078358	     -4.87633531	    -22.64837656	     -4.75806892	      2.80682429	     -5.50648672	    -17.42224912	     -1.94426001	     61.08651347	     89.95437384	      0.00000000	      0.00000000	     -8.06956716	      9.77181758	     25.89979065	      9.50028703	     89.95437384	      0.00000000	      0.00000000
      0.43000000	     15.26888431	      1.08426534	     -2.78404777	     -0.10947429	      0.91912162	      1.00971206	    -28.83207384	     -0.75073604	     -4.90262462	    -20.81783869	     -0.36333983	     13.12980882	     -7.38747343	     -0.93116169	     12.00443368	      1.04435631	     22.14332076	    -18.28928008	     -0.31920816	      7.66318284	     -1.28582222	     -4.97058854	    -22.29111660	     -5.16047788	      3.61959648	     -5.38484057	    -17.67536591	     -2.07355324	     62.24624751	     89.95437384	      0.00000000	      0.00000000	     -9.00688493	      9.84158343	     25.95845787	      9.25801493	     89.95437384	      0.00000000	      0.00000000
      0.44000000	     15.06342548	      1.02601278	     -3.16597090	     -0.09270105	      0.91655248	      1.00970636	    -28.94136147	     -1.00415873	     -4.32067694	    -22.24733329	     -0.38828922	     12.53944753	     -7.42652403	     -1.02662743	     12.53982528	      1.16592680	     22.45956023	    -17.85019447	     -0.31154467	      8.17675705	     -1.79445292	     -5.10402011	    -21.88321435	     -5.24539810	      4.24483574	     -5.37566390	    -17.69148988	     -2.52315524	     63.23042241	     89.95437384	      0.00000000	      0.00000000	     -9.83262802	      9.91716285	     26.28251396	      9.05355939	     89.95437384	      0.00000000	      0.00000000
      0.45000000	     14.80421011	      1.05317649	     -3.35071041	     -0.07570331	      0.91415871	      1.00953629	    -28.96065727	     -1.23150841	     -3.81655514	    -23.74156885	     -0.41436855	     11.70775774	     -7.24038506	     -1.01979983	     13.14630941	      1.15225979	     22.12750500	    -17.99588749	     -0.31408749	      8.32996876	     -1.86474162	     -5.05989153	    -21.37452257	     -5.37656610	      4.50946809	     -5.28820864	    -17.63795306	     -2.72510393	     63.92032411	     89.95437384	      0.00000000	      0.00000000	    -10.83018173	     10.00739448	     26.34802062	      9.08617245	     89.95437384	      0.00000000	      0.00000000
      0.46000000	     14.90726488	      1.13248492	     -4.29118318	     -0.05790836	      0.91258622	      1.01011808	    -29.10145970	     -1.91636140	     -2.91413929	    -25.60030484	     -0.44680961	     10.45750187	     -7.70237991	     -1.01868131	     12.91568403	      1.15338554	     22.17372808	    -18.08544301	     -0.31565053	      9.11575759	     -1.76405322	     -5.15777398	    -21.08024321	     -5.78535425	      5.65251162	     -5.53574548	    -17.58801427	     -3.21401869	     64.59092615	     89.95437384	      0.00000000	      0.00000000	    -11.47913143	     10.06951567	     26.86171818	      8.69142994	     89.95437384	      0.00000000	      0.00000000
      0.47000000	     14.92930670	      1.04855483	     -4.77961360	     -0.03983859	      0.91103037	      1.01039383	    -29.10712898	     -2.21912174	     -2.41153136	    -27.56230251	     -0.48105293	      8.94316553	     -7.76113610	     -0.92457161	     12.82178360	      1.24667478	     21.16647025	    -18.69931118	     -0.32636455	      9.46709084	     -1.54864933	     -5.12864616	    -20.70507967	     -5.90071747	      6.18984178	     -5.68209025	    -17.46581908	     -3.37095243	     65.01001901	     89.95437384	      0.00000000	      0.00000000	    -12.37174398	     10.12294442	     27.04639383	      8.58761036	     89.95437384	      0.00000000	      0.00000000
      0.48000000	     14.98824569	      1.03797555	     -5.19426090	     -0.02124485	      0.90971218	      1.01040963	    -29.07305188	     -2.53539948	     -1.89996805	    -29.61891162	     -0.51694753	      7.24820707	     -7.62320687	     -0.78951310	     12.61025048	      1.20057215	     19.72677987	    -19.63617112	     -0.34271584	      9.37961823	     -1.43596995	     -5.04558159	    -20.30537030	     -6.06833912	      6.58336985	     -5.87952483	    -17.26569728	     -3.52346980	     65.22109717	     89.95437384	      0.00000000	      0.00000000	    -13.34160762	     10.15638788	     27.10404680	      8.68565557	     89.95437384	      0.00000000	      0.00000000
      0.49000000	     15.26707538	      0.96594193	     -5.81759223	     -0.00232093	      0.90904564	      1.01052346	    -28.97344788	     -2.90431824	     -1.45114032	    -31.98632779	     -0.55826674	      3.73676209	     -9.26971734	     -0.24942685	     11.68585240	      0.88403964	     17.73395301	    -19.93656358	     -0.34795868	      9.39667233	      1.15774002	     -4.34352148	    -20.11532045	     -6.21045323	      7.24029294	     -6.32024211	    -17.02569390	     -3.88030372	     65.49709560	     89.95437384	      0.00000000	      0.00000000	    -13.91348484	     10.16442882	     27.68602191	      8.23384669	     89.95437384	      0.00000000	      0.00000000
      0.50000000	     15.67096106	      1.10892644	     -6.26431215	      0.01681333	      0.90856459	      1.00990544	    -28.75694634	     -3.57351725	     -1.70129293	    -34.71839831	     -0.60595036	     -0.12568467	    -10.50249202	      0.45277881	     11.20115089	      0.66875285	     17.97984905	    -21.55554390	     -0.37621521	      6.06772293	      3.63562200	     -3.87751086	    -20.04184825	     -6.49910541	      7.46509376	     -6.63064952	    -16.91570032	     -3.78822287	     65.56143274	     89.95437384	      0.00000000	      0.00000000	    -14.59489168	     10.08424406	     28.31442622	      8.03792887	     89.95437384	      0.00000000	      0.00000000
      0.51000000	     16.07270414	      1.30662236	     -6.54767550	      0.03533247	      0.90826677	      1.00902633	    -28.21429286	     -4.40909647	     -2.48489623	    -37.80114101	     -0.65975437	     -3.55588298	    -10.38405263	      0.89116424	     10.85209659	      0.44904762	     17.42783299	    -23.62093319	     -0.41226306	      4.98216221	      3.75713195	     -3.82280131	    -20.07503436	     -6.79886796	      7.41988170	     -6.81857811	    -16.75693239	     -3.62662601	     65.39374808	     89.95437384	      0.00000000	      0.00000000	    -15.16827792	     10.00595496	     28.16118588	      7.92905684	     89.95437384	      0.00000000	      0.00000000
      0.52000000	     16.30448924	      1.94460473	     -6.83038548	      0.05340837	      0.90812129	      1.00823621	    -27.21560284	     -5.60873405	     -3.21936983	    -41.09643485	     -0.71726810	     -6.99805144	    -11.60431291	      1.70680442	     10.82655224	     -0.27907480	     16.52742137	    -25.89971268	     -0.45203526	      5.03556128	      4.06799843	     -4.09377708	    -19.94911095	     -7.59274715	      7.27479231	     -6.96811884	    -16.39404674	     -3.51417962	     64.92244173	     89.95437384	      0.00000000	      0.00000000	    -15.56006180	     10.03502756	     28.20539825	      7.82894404	     89.95437384	      0.00000000	      0.00000000
      0.53000000	     16.53322864	      2.57823101	     -6.81605773	      0.07064806	      0.90842989	      1.00732199	    -25.96838015	     -6.63173501	     -4.07064514	    -44.62039218	     -0.77877276	    -10.30409233	    -12.84574238	      3.19324657	     10.77411308	     -1.31597666	     14.50268470	    -28.09822036	     -0.49040646	      4.71358173	      6.17379281	     -4.01246249	    -20.02222377	     -8.32427828	      6.71707281	     -6.99681510	    -15.96476876	     -3.32148979	     64.36621340	     89.95437384	      0.00000000	      0.00000000	    -15.80403745	     10.09376596	     27.72306105	      7.79805915	     89.95437384	      0.00000000	      0.00000000
      0.54000000	     17.23231172	      3.16725269	     -6.95245762	      0.08804345	      0.90967133	      1.00654757	    -25.12917400	     -7.90439742	     -5.02270639	    -47.92013960	     -0.83636421	    -13.90678749	    -13.08863474	      3.89185112	      9.83120130	     -2.20176308	     13.82359796	    -29.56154009	     -0.51594621	      4.59127513	      6.70615212	     -3.90234102	    -20.58287497	     -9.07422967	      6.26632772	     -7.06540144	    -15.59279698	     -3.08898080	     63.72228358	     89.95437384	      0.00000000	      0.00000000	    -15.78974252	     10.13725314	     27.19995236	      7.61200025	     89.95437384	      0.00000000	      0.00000000
      0.55000000	     17.54506822	      4.52720143	     -6.82102290	      0.10448660	      0.91060270	      1.00436215	    -23.55899365	     -9.79599726	     -6.08025295	    -51.40451215	     -0.89717799	    -17.77340900	    -15.09318211	      6.43549474	      9.05487985	     -4.67121830	     11.42622988	    -30.10355814	     -0.52540621	      4.84811885	     10.63390574	     -3.44031288	    -20.86940702	    -10.43781134	      5.32510354	     -7.06331794	    -15.08523388	     -2.99497233	     62.83779269	     89.95437384	      0.00000000	      0.00000000	    -15.74747471	     10.22764161	     25.73894901	      7.78393273	     89.95437384	      0.00000000	      0.00000000
